<?xml version="1.0" encoding="UTF-8"?>
<svg xmlns="http://www.w3.org/2000/svg" xmlns:xlink="http://www.w3.org/1999/xlink" viewBox="0 0 16 16" width="16px" height="16px">
<g id="surface75277657">
<path style=" stroke:none;fill-rule:nonzero;fill:rgb(100%,100%,100%);fill-opacity:1;" d="M 6 1.332031 C 3.429688 1.332031 1.332031 3.429688 1.332031 6 C 1.332031 8.570312 3.429688 10.667969 6 10.667969 C 7.164062 10.667969 8.230469 10.230469 9.050781 9.519531 L 9.332031 9.804688 L 9.332031 10.667969 L 13.058594 14.390625 C 13.425781 14.757812 14.023438 14.757812 14.390625 14.390625 C 14.757812 14.023438 14.757812 13.425781 14.390625 13.058594 L 10.667969 9.332031 L 9.804688 9.332031 L 9.519531 9.050781 C 10.230469 8.230469 10.667969 7.164062 10.667969 6 C 10.667969 3.429688 8.570312 1.332031 6 1.332031 Z M 6 2.667969 C 7.847656 2.667969 9.332031 4.152344 9.332031 6 C 9.332031 7.847656 7.847656 9.332031 6 9.332031 C 4.152344 9.332031 2.667969 7.847656 2.667969 6 C 2.667969 4.152344 4.152344 2.667969 6 2.667969 Z M 6 2.667969 "/>
</g>
</svg>
