 <svg xmlns="http://www.w3.org/2000/svg" width="100" height="100" viewBox="0 0 512 512"><path fill="#57606f" d="M412,446v-30v-40H142h-5c-19.33,0-35,15.67-35,35c0,9.66,3.92,18.42,10.25,24.75 S127.34,446,137,446H412z"></path><polygon fill="#d7deed" points="152,26 142,26 142,66 142,376 412,376 412,336 412,26"></polygon><path fill="#d7deed" d="M466,386c8.28,0,15,6.72,15,15s-6.72,15-15,15s-15-6.72-15-15S457.72,386,466,386z"></path><path fill="#d7deed" d="M51,126c11.05,0,20,8.95,20,20s-8.95,20-20,20s-20-8.95-20-20S39.95,126,51,126z"></path><polygon fill="#e64c42" points="252,446 252,486 212,456 172,486 172,446 172,416 252,416"></polygon><path fill="#afb9d2" d="M142,66v310h-5c-19.33,0-35,15.67-35,35V53.67C102,38.39,114.39,26,129.67,26H142V66z"></path><path fill="#fcd884" d="M335.16,173.09c0,27.9-17.04,51.83-41.28,61.94V276h-51.61v-40.97 c-24.24-10.11-41.28-34.04-41.28-61.94c0-37.05,30.03-67.09,67.08-67.09C305.12,106,335.16,136.04,335.16,173.09z"></path><rect width="19.997" height="19.998" x="456.861" y="161.861" fill="#ef727a" transform="rotate(-45.001 466.871 171.866)"></rect><rect width="19.997" height="19.998" x="336.861" y="250.141" fill="#afb9d2" transform="rotate(-45.001 346.877 260.15)"></rect><rect width="19.996" height="19.997" x="165.142" y="220.142" fill="#afb9d2" transform="rotate(-45.001 175.138 230.143)"></rect><rect width="19.996" height="19.997" x="75.142" y="451.862" fill="#ef727a" transform="rotate(-45.001 85.135 461.864)"></rect><rect width="19.996" height="19.997" x="45.142" y="281.862" fill="#ef727a" transform="rotate(-45.001 55.137 291.862)"></rect><path fill="#9fa8bc" d="M372,76c2.63,0,5.21-1.07,7.07-2.93C380.93,71.21,382,68.63,382,66s-1.07-5.21-2.93-7.07 C377.21,57.07,374.63,56,372,56s-5.21,1.07-7.07,2.93C363.07,60.79,362,63.37,362,66s1.07,5.21,2.93,7.07 C366.79,74.93,369.37,76,372,76z"></path><path fill="#9fa8bc" d="M352,66c0-5.523-4.478-10-10-10H142v10v10h200C347.522,76,352,71.523,352,66z"></path><path fill="#9fa8bc" d="M212,326c-5.523,0-10,4.478-10,10s4.477,10,10,10h200v-10v-10H212z"></path><path fill="#414a56" d="M412,406H152c-5.523,0-10,4.478-10,10s4.477,10,10,10h260v-10V406z"></path><path fill="#57606f" d="M283.55,147.6c-5.825,0-11.183,1.987-15.479,5.29c-4.297-3.303-9.655-5.29-15.48-5.29 c-14.05,0-25.48,11.435-25.48,25.49c0,5.523,4.477,10,10,10s10-4.477,10-10c0-3.027,2.458-5.49,5.48-5.49 c3.022,0,5.48,2.463,5.48,5.49V206c0,5.523,4.478,10,10,10s10-4.477,10-10v-32.91c0-3.027,2.458-5.49,5.479-5.49 c3.027,0,5.49,2.463,5.49,5.49c0,5.523,4.478,10,10,10s10-4.477,10-10C309.04,159.035,297.605,147.6,283.55,147.6z"></path><path fill="#afb9d2" d="M281,316h-25.85c-5.523,0-10-4.478-10-10s4.477-10,10-10H281c5.522,0,10,4.478,10,10 S286.522,316,281,316z"></path></svg>
