<svg xmlns="http://www.w3.org/2000/svg" viewBox="0 0 48 48"><path fill="#057093" d="M42.5,44H5v-2.5C5,41.224,5.224,41,5.5,41h37c0.276,0,0.5,0.224,0.5,0.5v2	C43,43.776,42.776,44,42.5,44z"></path><linearGradient id="dlIrnkWlXDQONWfG6l_pva" x1="6.382" x2="54.669" y1="19.164" y2="67.451" gradientUnits="userSpaceOnUse"><stop offset="0" stop-color="#fed100"></stop><stop offset="1" stop-color="#e36001"></stop></linearGradient><path fill="url(#dlIrnkWlXDQONWfG6l_pva)" d="M26.66,12.81l-0.09,0.092C23.322,16.16,20.916,17,13.5,17h-0.762	c-0.438,0-0.826,0.286-0.955,0.705L4.066,42.66c-0.128,0.354-0.057,0.764,0.227,1.047s0.693,0.355,1.047,0.227l24.955-7.716	C30.714,36.088,31,35.701,31,35.262V34.5c0-7.416,0.84-9.822,4.098-13.07l0.092-0.09L26.66,12.81z"></path><linearGradient id="dlIrnkWlXDQONWfG6l_pvb" x1="22.602" x2="3.402" y1="25.391" y2="44.592" gradientUnits="userSpaceOnUse"><stop offset="0" stop-color="#c18310"></stop><stop offset="1" stop-color="#eba601"></stop></linearGradient><path fill="url(#dlIrnkWlXDQONWfG6l_pvb)" d="M21.493,24C20.116,24,19,25.119,19,26.5c0,1.381,1.116,2.5,2.493,2.5s2.493-1.119,2.493-2.5	C23.987,25.119,22.871,24,21.493,24z"></path><linearGradient id="dlIrnkWlXDQONWfG6l_pvc" x1="23.375" x2="-15.518" y1="24.625" y2="63.517" gradientUnits="userSpaceOnUse"><stop offset="0" stop-color="#c18310"></stop><stop offset="1" stop-color="#eba601"></stop></linearGradient><path fill="url(#dlIrnkWlXDQONWfG6l_pvc)" d="M5,44c-0.256,0-0.512-0.098-0.707-0.293c-0.391-0.391-0.391-1.023,0-1.414l16.25-16.25	c0.391-0.391,1.023-0.391,1.414,0s0.391,1.023,0,1.414l-16.25,16.25C5.512,43.902,5.256,44,5,44z"></path><path d="M26.66,12.81c0,0-0.28,0.28-0.37,0.36c-0.13,0.12-0.25,0.24-0.38,0.35	c-0.12,0.12-0.24,0.23-0.36,0.33c0.09,0.15,0.2,0.28,0.33,0.41l7.86,7.86c0.13,0.13,0.26,0.24,0.41,0.33	c0.1-0.12,0.21-0.24,0.33-0.36c0.11-0.13,0.23-0.25,0.35-0.38c0.08-0.09,0.36-0.37,0.36-0.37L26.66,12.81z" opacity=".05"></path><path d="M26.66,12.81c0,0-0.28,0.28-0.37,0.36c-0.13,0.12-0.25,0.24-0.38,0.35c0,0,0,0.01,0.01,0.01	c0.09,0.14,0.19,0.26,0.31,0.38l7.86,7.86c0.12,0.12,0.24,0.22,0.38,0.31c0,0.01,0.01,0.01,0.01,0.01c0.11-0.13,0.23-0.25,0.35-0.38	c0.08-0.09,0.36-0.37,0.36-0.37L26.66,12.81z" opacity=".05"></path><linearGradient id="dlIrnkWlXDQONWfG6l_pvd" x1="27.507" x2="40.507" y1="7.493" y2="20.493" gradientUnits="userSpaceOnUse"><stop offset="0" stop-color="#f44f5a"></stop><stop offset=".443" stop-color="#ee3d4a"></stop><stop offset="1" stop-color="#e52030"></stop></linearGradient><path fill="url(#dlIrnkWlXDQONWfG6l_pvd)" d="M31,4l-4.665,7.035c-0.527,0.792-0.423,1.847,0.249,2.52l7.861,7.861	c0.674,0.672,1.728,0.777,2.52,0.249L44,17L31,4z"></path></svg>
