<svg xmlns="http://www.w3.org/2000/svg" viewBox="0 0 48 48"><path fill="#3dd9eb" d="M44,25v2c0,1.1-0.9,2-2,2h-2c-0.37,0-0.73,0.07-1.05,0.2C37.81,29.61,37,30.71,37,32v2	c0,1.66-1.34,3-3,3h-0.47c-0.86,0-1.64,0.54-1.89,1.36c-0.16,0.52-0.37,1.02-0.64,1.49C29.65,42.32,27.02,44,24,44	s-5.65-1.68-7-4.15c-0.27-0.47-0.48-0.97-0.64-1.49C16.11,37.54,15.33,37,14.47,37H14c-1.66,0-3-1.34-3-3v-2	c0-1.29-0.81-2.39-1.95-2.8C8.73,29.07,8.37,29,8,29H6c-1.1,0-2-0.9-2-2v-2c0-3.29,2.64-6.08,5.93-6c1.69,0.04,3.07-1.32,3.07-3	c0-6.08,4.92-11,11-11s11,4.92,11,11c0,1.68,1.38,3.04,3.07,3C41.36,18.92,44,21.71,44,25z"></path><path fill="#2100c4" d="M19,22c1.657,0,3-1.343,3-3h-6C16,20.657,17.343,22,19,22z"></path><path fill="#2100c4" d="M29.828,21.845c1.638-0.491,2.573-2.202,2.087-3.82l-5.933,1.78	C26.469,21.423,28.19,22.336,29.828,21.845z"></path><path fill="#00b3d7" d="M17,27v12.85c-0.27-0.47-0.48-0.97-0.64-1.49C16.11,37.54,15.33,37,14.47,37H14L17,27z"></path><path fill="#00b3d7" d="M34,37h-0.47c-0.86,0-1.64,0.54-1.89,1.36c-0.16,0.52-0.37,1.02-0.64,1.49V27L34,37z"></path><path fill="#00b3d7" d="M38.95,29.2C37.81,29.61,37,30.71,37,32v-8L38.95,29.2z"></path><path fill="#00b3d7" d="M11,24v8c0-1.29-0.81-2.39-1.95-2.8L11,24z"></path></svg> 
