<svg id="Capa_1" enable-background="new 0 0 512 512" height="512" viewBox="0 0 512 512" width="512" xmlns="http://www.w3.org/2000/svg"><g><g><g><g><g><circle cx="256" cy="256" fill="#ff9e22" r="256"/></g></g></g></g><path d="m417.051 169.536-83.989-26.19-48.417 48.417-123.261-123.262-67.944 61.533-14.985 57.182 53.227 53.227-32.983 13.632 147.411 147.411-35.793 35.793 73.24 73.24c128.424-13.746 228.443-122.446 228.443-254.519 0-25.353-3.704-49.838-10.568-72.963l-69.527-69.527z" fill="#dc7d00"/><g><path d="m176.917 262.381c19.55-11.474 31.013-31.447 32.467-52.474l-122.878 28.94c18.468 31.465 58.946 42.001 90.411 23.534z" fill="#61362b"/><path d="m338.153 262.381c-19.55-11.474-31.013-31.447-32.467-52.474l122.878 28.941c-18.468 31.464-58.946 42-90.411 23.533z" fill="#4d2c21"/><path d="m257.535 165.6h-6.233c-35.363 0-63.489 25.709-61.604 56.311l12.234 198.635c.849 13.788 13.998 24.591 29.932 24.591h25.671l9.76-135.096z" fill="#784132"/><path d="m283.206 445.138h-25.671v-279.538h6.233c35.363 0 63.489 25.709 61.604 56.311l-12.234 198.635c-.849 13.789-13.998 24.592-29.932 24.592z" fill="#61362b"/><g><circle cx="202.445" cy="292.824" fill="#784132" r="24.35"/><circle cx="312.625" cy="292.824" fill="#61362b" r="24.35"/></g><path d="m329.842 292.824c0 9.509-7.709 17.218-17.218 17.218s-17.218-7.709-17.218-17.218c.001-9.509 34.436-9.509 34.436 0z" fill="#2d2d2d"/><path d="m219.663 292.824c0 9.509-7.709 17.218-17.218 17.218s-17.218-7.709-17.218-17.218c.001-9.509 34.436-9.509 34.436 0z" fill="#464646"/><g><path d="m242.615 424.37s-15.986-5.063-19.095-8.415-2.912-8.59.441-11.699 8.59-2.912 11.699.441c3.11 3.352 6.955 19.673 6.955 19.673z" fill="#464646"/><path d="m272.455 424.37s15.986-5.063 19.095-8.415 2.912-8.59-.441-11.699c-3.352-3.109-8.59-2.912-11.699.441-3.109 3.352-6.955 19.673-6.955 19.673z" fill="#2d2d2d"/></g><g><g><path d="m294.367 211.578c-4.015 0-8.084-.969-11.864-3.011-12.147-6.564-16.672-21.733-10.108-33.879l10.732-19.858c13.751-25.447 45.741-35.147 71.31-21.625l38.943 20.596c1.321.699 7.49 3.964 11.341.137 13.33-13.247-54.107-85.437-54.107-85.437 9.692-9.833 63.08 27.066 81.289 45.011s20.993 46.314 6.62 67.457c-15.186 22.337-44.642 29.66-68.518 17.032l-38.943-20.596c-1.416-.749-3.186-.212-3.947 1.197l-10.732 19.858c-4.522 8.367-13.128 13.118-22.016 13.118z" fill="#ebf3ff"/></g></g></g><g><path d="m217.633 211.578c4.015 0 8.084-.969 11.864-3.011 12.147-6.564 16.672-21.733 10.108-33.879l-10.732-19.858c-13.751-25.447-45.741-35.147-71.31-21.625l-38.943 20.596c-1.321.699-7.49 3.964-11.341.137-13.33-13.247 54.107-85.437 54.107-85.437-9.692-9.833-63.08 27.066-81.289 45.011s-20.993 46.314-6.62 67.457c15.186 22.337 44.642 29.66 68.518 17.032l38.943-20.596c1.416-.749 3.186-.212 3.947 1.197l10.732 19.858c4.522 8.367 13.128 13.118 22.016 13.118z" fill="#fff"/></g></g></svg>